<svg xmlns="http://www.w3.org/2000/svg" width="760" height="460" viewBox="0 0 760 460">
<rect width="100%" height="100%" fill="#ffffff"/>
<text x="380.0" y="24" text-anchor="middle" font-family="sans-serif" font-size="17">probe-stream-mixed: bandwidth-latency curve</text>
<line x1="88.0" y1="48" x2="88.0" y2="392" stroke="#e8e8e8"/>
<text x="88.0" y="418" text-anchor="middle" font-family="sans-serif" font-size="11">0.0</text>
<line x1="250.0" y1="48" x2="250.0" y2="392" stroke="#e8e8e8"/>
<text x="250.0" y="418" text-anchor="middle" font-family="sans-serif" font-size="11">6.1</text>
<line x1="412.0" y1="48" x2="412.0" y2="392" stroke="#e8e8e8"/>
<text x="412.0" y="418" text-anchor="middle" font-family="sans-serif" font-size="11">12.1</text>
<line x1="574.0" y1="48" x2="574.0" y2="392" stroke="#e8e8e8"/>
<text x="574.0" y="418" text-anchor="middle" font-family="sans-serif" font-size="11">18.2</text>
<line x1="736.0" y1="48" x2="736.0" y2="392" stroke="#e8e8e8"/>
<text x="736.0" y="418" text-anchor="middle" font-family="sans-serif" font-size="11">24.3</text>
<line x1="88" y1="392.0" x2="736" y2="392.0" stroke="#e8e8e8"/>
<text x="80" y="396.0" text-anchor="end" font-family="sans-serif" font-size="11">0</text>
<line x1="88" y1="306.0" x2="736" y2="306.0" stroke="#e8e8e8"/>
<text x="80" y="310.0" text-anchor="end" font-family="sans-serif" font-size="11">89.84</text>
<line x1="88" y1="220.0" x2="736" y2="220.0" stroke="#e8e8e8"/>
<text x="80" y="224.0" text-anchor="end" font-family="sans-serif" font-size="11">179.7</text>
<line x1="88" y1="134.0" x2="736" y2="134.0" stroke="#e8e8e8"/>
<text x="80" y="138.0" text-anchor="end" font-family="sans-serif" font-size="11">269.5</text>
<line x1="88" y1="48.0" x2="736" y2="48.0" stroke="#e8e8e8"/>
<text x="80" y="52.0" text-anchor="end" font-family="sans-serif" font-size="11">359.4</text>
<line x1="88" y1="392" x2="736" y2="392" stroke="#222"/>
<line x1="88" y1="48" x2="88" y2="392" stroke="#222"/>
<text x="412.0" y="448" text-anchor="middle" font-family="sans-serif" font-size="13">Used stream bandwidth (GB/s)</text>
<text x="20" y="220.0" text-anchor="middle" font-family="sans-serif" font-size="13" transform="rotate(-90 20 220.0)">Random-read probe latency (ns)</text>
<polyline fill="none" stroke="#2f6f9f" stroke-width="2.2" points="116.7,272.3 202.4,253.9 316.3,238.1 423.4,217.4 530.8,202.9 617.9,185.5 675.7,158.9 692.0,131.9 696.2,126.0 696.7,129.6 708.5,106.4 711.1,106.7"/>
<circle cx="116.7" cy="272.3" r="3.5" fill="#2f6f9f"/>
<circle cx="202.4" cy="253.9" r="3.5" fill="#2f6f9f"/>
<circle cx="316.3" cy="238.1" r="3.5" fill="#2f6f9f"/>
<circle cx="423.4" cy="217.4" r="3.5" fill="#2f6f9f"/>
<circle cx="530.8" cy="202.9" r="3.5" fill="#2f6f9f"/>
<circle cx="617.9" cy="185.5" r="3.5" fill="#2f6f9f"/>
<circle cx="675.7" cy="158.9" r="3.5" fill="#2f6f9f"/>
<circle cx="692.0" cy="131.9" r="3.5" fill="#2f6f9f"/>
<circle cx="696.2" cy="126.0" r="3.5" fill="#2f6f9f"/>
<circle cx="696.7" cy="129.6" r="3.5" fill="#2f6f9f"/>
<circle cx="708.5" cy="106.4" r="3.5" fill="#2f6f9f"/>
<circle cx="711.1" cy="106.7" r="3.5" fill="#2f6f9f"/>
<line x1="104" y1="50" x2="128" y2="50" stroke="#2f6f9f" stroke-width="2.2"/>
<text x="134" y="54" font-family="sans-serif" font-size="12">gem5</text>
<polyline fill="none" stroke="#b8423f" stroke-width="2.2" points="116.7,340.9 202.5,319.7 316.6,282.8 425.3,250.5 522.7,224.9 607.2,170.2 660.5,139.8 681.6,119.2 688.5,74.9 690.2,87.2 692.3,100.9 693.7,73.5"/>
<circle cx="116.7" cy="340.9" r="3.5" fill="#b8423f"/>
<circle cx="202.5" cy="319.7" r="3.5" fill="#b8423f"/>
<circle cx="316.6" cy="282.8" r="3.5" fill="#b8423f"/>
<circle cx="425.3" cy="250.5" r="3.5" fill="#b8423f"/>
<circle cx="522.7" cy="224.9" r="3.5" fill="#b8423f"/>
<circle cx="607.2" cy="170.2" r="3.5" fill="#b8423f"/>
<circle cx="660.5" cy="139.8" r="3.5" fill="#b8423f"/>
<circle cx="681.6" cy="119.2" r="3.5" fill="#b8423f"/>
<circle cx="688.5" cy="74.9" r="3.5" fill="#b8423f"/>
<circle cx="690.2" cy="87.2" r="3.5" fill="#b8423f"/>
<circle cx="692.3" cy="100.9" r="3.5" fill="#b8423f"/>
<circle cx="693.7" cy="73.5" r="3.5" fill="#b8423f"/>
<line x1="234" y1="50" x2="258" y2="50" stroke="#b8423f" stroke-width="2.2"/>
<text x="264" y="54" font-family="sans-serif" font-size="12">ramulator</text>
</svg>
