<svg xmlns="http://www.w3.org/2000/svg" width="760" height="460" viewBox="0 0 760 460">
<rect width="100%" height="100%" fill="#ffffff"/>
<text x="380.0" y="24" text-anchor="middle" font-family="sans-serif" font-size="17">random-mixed: achieved bandwidth (GB/s)</text>
<line x1="88.0" y1="48" x2="88.0" y2="392" stroke="#e8e8e8"/>
<text x="88.0" y="418" text-anchor="middle" font-family="sans-serif" font-size="11">0.0</text>
<line x1="250.0" y1="48" x2="250.0" y2="392" stroke="#e8e8e8"/>
<text x="250.0" y="418" text-anchor="middle" font-family="sans-serif" font-size="11">8.6</text>
<line x1="412.0" y1="48" x2="412.0" y2="392" stroke="#e8e8e8"/>
<text x="412.0" y="418" text-anchor="middle" font-family="sans-serif" font-size="11">17.2</text>
<line x1="574.0" y1="48" x2="574.0" y2="392" stroke="#e8e8e8"/>
<text x="574.0" y="418" text-anchor="middle" font-family="sans-serif" font-size="11">25.8</text>
<line x1="736.0" y1="48" x2="736.0" y2="392" stroke="#e8e8e8"/>
<text x="736.0" y="418" text-anchor="middle" font-family="sans-serif" font-size="11">34.4</text>
<line x1="88" y1="392.0" x2="736" y2="392.0" stroke="#e8e8e8"/>
<text x="80" y="396.0" text-anchor="end" font-family="sans-serif" font-size="11">0</text>
<line x1="88" y1="306.0" x2="736" y2="306.0" stroke="#e8e8e8"/>
<text x="80" y="310.0" text-anchor="end" font-family="sans-serif" font-size="11">2.833</text>
<line x1="88" y1="220.0" x2="736" y2="220.0" stroke="#e8e8e8"/>
<text x="80" y="224.0" text-anchor="end" font-family="sans-serif" font-size="11">5.666</text>
<line x1="88" y1="134.0" x2="736" y2="134.0" stroke="#e8e8e8"/>
<text x="80" y="138.0" text-anchor="end" font-family="sans-serif" font-size="11">8.499</text>
<line x1="88" y1="48.0" x2="736" y2="48.0" stroke="#e8e8e8"/>
<text x="80" y="52.0" text-anchor="end" font-family="sans-serif" font-size="11">11.33</text>
<line x1="88" y1="392" x2="736" y2="392" stroke="#222"/>
<line x1="88" y1="48" x2="88" y2="392" stroke="#222"/>
<text x="412.0" y="448" text-anchor="middle" font-family="sans-serif" font-size="13">Offered bandwidth (GB/s)</text>
<text x="20" y="220.0" text-anchor="middle" font-family="sans-serif" font-size="13" transform="rotate(-90 20 220.0)">Achieved bandwidth (GB/s)</text>
<polyline fill="none" stroke="#3f9f57" stroke-width="2.2" points="108.2,359.5 128.5,327.0 169.0,262.0 250.0,133.5 331.0,88.0 412.0,91.5 493.0,92.7 574.0,95.4 655.0,86.6 736.0,88.4"/>
<circle cx="108.2" cy="359.5" r="3.5" fill="#3f9f57"/>
<circle cx="128.5" cy="327.0" r="3.5" fill="#3f9f57"/>
<circle cx="169.0" cy="262.0" r="3.5" fill="#3f9f57"/>
<circle cx="250.0" cy="133.5" r="3.5" fill="#3f9f57"/>
<circle cx="331.0" cy="88.0" r="3.5" fill="#3f9f57"/>
<circle cx="412.0" cy="91.5" r="3.5" fill="#3f9f57"/>
<circle cx="493.0" cy="92.7" r="3.5" fill="#3f9f57"/>
<circle cx="574.0" cy="95.4" r="3.5" fill="#3f9f57"/>
<circle cx="655.0" cy="86.6" r="3.5" fill="#3f9f57"/>
<circle cx="736.0" cy="88.4" r="3.5" fill="#3f9f57"/>
<line x1="104" y1="50" x2="128" y2="50" stroke="#3f9f57" stroke-width="2.2"/>
<text x="134" y="54" font-family="sans-serif" font-size="12">dramsim3</text>
<polyline fill="none" stroke="#b8423f" stroke-width="2.2" points="108.2,359.6 128.5,327.0 169.0,262.0 250.0,135.1 331.0,134.1 412.0,134.1 493.0,135.4 574.0,135.4 655.0,135.4 736.0,135.4"/>
<circle cx="108.2" cy="359.6" r="3.5" fill="#b8423f"/>
<circle cx="128.5" cy="327.0" r="3.5" fill="#b8423f"/>
<circle cx="169.0" cy="262.0" r="3.5" fill="#b8423f"/>
<circle cx="250.0" cy="135.1" r="3.5" fill="#b8423f"/>
<circle cx="331.0" cy="134.1" r="3.5" fill="#b8423f"/>
<circle cx="412.0" cy="134.1" r="3.5" fill="#b8423f"/>
<circle cx="493.0" cy="135.4" r="3.5" fill="#b8423f"/>
<circle cx="574.0" cy="135.4" r="3.5" fill="#b8423f"/>
<circle cx="655.0" cy="135.4" r="3.5" fill="#b8423f"/>
<circle cx="736.0" cy="135.4" r="3.5" fill="#b8423f"/>
<line x1="234" y1="50" x2="258" y2="50" stroke="#b8423f" stroke-width="2.2"/>
<text x="264" y="54" font-family="sans-serif" font-size="12">dramsys</text>
<polyline fill="none" stroke="#2f6f9f" stroke-width="2.2" points="108.2,359.5 128.5,327.1 169.0,262.0 250.0,138.9 331.0,84.2 412.0,78.6 493.0,78.2 574.0,78.5 655.0,73.5 736.0,74.9"/>
<circle cx="108.2" cy="359.5" r="3.5" fill="#2f6f9f"/>
<circle cx="128.5" cy="327.1" r="3.5" fill="#2f6f9f"/>
<circle cx="169.0" cy="262.0" r="3.5" fill="#2f6f9f"/>
<circle cx="250.0" cy="138.9" r="3.5" fill="#2f6f9f"/>
<circle cx="331.0" cy="84.2" r="3.5" fill="#2f6f9f"/>
<circle cx="412.0" cy="78.6" r="3.5" fill="#2f6f9f"/>
<circle cx="493.0" cy="78.2" r="3.5" fill="#2f6f9f"/>
<circle cx="574.0" cy="78.5" r="3.5" fill="#2f6f9f"/>
<circle cx="655.0" cy="73.5" r="3.5" fill="#2f6f9f"/>
<circle cx="736.0" cy="74.9" r="3.5" fill="#2f6f9f"/>
<line x1="364" y1="50" x2="388" y2="50" stroke="#2f6f9f" stroke-width="2.2"/>
<text x="394" y="54" font-family="sans-serif" font-size="12">gem5</text>
</svg>
