<svg xmlns="http://www.w3.org/2000/svg" width="760" height="460" viewBox="0 0 760 460">
<rect width="100%" height="100%" fill="#ffffff"/>
<text x="380.0" y="24" text-anchor="middle" font-family="sans-serif" font-size="17">random-read: average latency</text>
<line x1="80.0" y1="48" x2="80.0" y2="392" stroke="#e8e8e8"/>
<text x="80.0" y="418" text-anchor="middle" font-family="sans-serif" font-size="11">0.0</text>
<line x1="244.0" y1="48" x2="244.0" y2="392" stroke="#e8e8e8"/>
<text x="244.0" y="418" text-anchor="middle" font-family="sans-serif" font-size="11">8.6</text>
<line x1="408.0" y1="48" x2="408.0" y2="392" stroke="#e8e8e8"/>
<text x="408.0" y="418" text-anchor="middle" font-family="sans-serif" font-size="11">17.2</text>
<line x1="572.0" y1="48" x2="572.0" y2="392" stroke="#e8e8e8"/>
<text x="572.0" y="418" text-anchor="middle" font-family="sans-serif" font-size="11">25.8</text>
<line x1="736.0" y1="48" x2="736.0" y2="392" stroke="#e8e8e8"/>
<text x="736.0" y="418" text-anchor="middle" font-family="sans-serif" font-size="11">34.4</text>
<line x1="80" y1="392.0" x2="736" y2="392.0" stroke="#e8e8e8"/>
<text x="72" y="396.0" text-anchor="end" font-family="sans-serif" font-size="11">0</text>
<line x1="80" y1="306.0" x2="736" y2="306.0" stroke="#e8e8e8"/>
<text x="72" y="310.0" text-anchor="end" font-family="sans-serif" font-size="11">2.2e+05</text>
<line x1="80" y1="220.0" x2="736" y2="220.0" stroke="#e8e8e8"/>
<text x="72" y="224.0" text-anchor="end" font-family="sans-serif" font-size="11">4.5e+05</text>
<line x1="80" y1="134.0" x2="736" y2="134.0" stroke="#e8e8e8"/>
<text x="72" y="138.0" text-anchor="end" font-family="sans-serif" font-size="11">6.7e+05</text>
<line x1="80" y1="48.0" x2="736" y2="48.0" stroke="#e8e8e8"/>
<text x="72" y="52.0" text-anchor="end" font-family="sans-serif" font-size="11">9e+05</text>
<line x1="80" y1="392" x2="736" y2="392" stroke="#222"/>
<line x1="80" y1="48" x2="80" y2="392" stroke="#222"/>
<text x="408.0" y="448" text-anchor="middle" font-family="sans-serif" font-size="13">Offered bandwidth (GB/s)</text>
<text x="18" y="220.0" text-anchor="middle" font-family="sans-serif" font-size="13" transform="rotate(-90 18 220.0)">Average latency (ticks)</text>
<polyline fill="none" stroke="#b8423f" stroke-width="2.2" points="100.5,364.0 121.0,85.2 162.0,76.9 244.0,74.8 326.0,75.7 408.0,74.9 490.0,74.4 572.0,73.5 654.0,73.8 736.0,73.6"/>
<circle cx="100.5" cy="364.0" r="3.5" fill="#b8423f"/>
<circle cx="121.0" cy="85.2" r="3.5" fill="#b8423f"/>
<circle cx="162.0" cy="76.9" r="3.5" fill="#b8423f"/>
<circle cx="244.0" cy="74.8" r="3.5" fill="#b8423f"/>
<circle cx="326.0" cy="75.7" r="3.5" fill="#b8423f"/>
<circle cx="408.0" cy="74.9" r="3.5" fill="#b8423f"/>
<circle cx="490.0" cy="74.4" r="3.5" fill="#b8423f"/>
<circle cx="572.0" cy="73.5" r="3.5" fill="#b8423f"/>
<circle cx="654.0" cy="73.8" r="3.5" fill="#b8423f"/>
<circle cx="736.0" cy="73.6" r="3.5" fill="#b8423f"/>
<line x1="96" y1="50" x2="120" y2="50" stroke="#b8423f" stroke-width="2.2"/>
<text x="126" y="54" font-family="sans-serif" font-size="12">dramsys</text>
<polyline fill="none" stroke="#2f6f9f" stroke-width="2.2" points="100.5,362.5 121.0,361.1 162.0,357.5 244.0,350.8 326.0,347.4 408.0,347.0 490.0,347.0 572.0,346.9 654.0,347.0 736.0,346.9"/>
<circle cx="100.5" cy="362.5" r="3.5" fill="#2f6f9f"/>
<circle cx="121.0" cy="361.1" r="3.5" fill="#2f6f9f"/>
<circle cx="162.0" cy="357.5" r="3.5" fill="#2f6f9f"/>
<circle cx="244.0" cy="350.8" r="3.5" fill="#2f6f9f"/>
<circle cx="326.0" cy="347.4" r="3.5" fill="#2f6f9f"/>
<circle cx="408.0" cy="347.0" r="3.5" fill="#2f6f9f"/>
<circle cx="490.0" cy="347.0" r="3.5" fill="#2f6f9f"/>
<circle cx="572.0" cy="346.9" r="3.5" fill="#2f6f9f"/>
<circle cx="654.0" cy="347.0" r="3.5" fill="#2f6f9f"/>
<circle cx="736.0" cy="346.9" r="3.5" fill="#2f6f9f"/>
<line x1="246" y1="50" x2="270" y2="50" stroke="#2f6f9f" stroke-width="2.2"/>
<text x="276" y="54" font-family="sans-serif" font-size="12">gem5</text>
</svg>
